<mxfile host="65bd71144e">
    <diagram id="Nw3_JvGduS9BlWScfJX2" name="Page-1">
        <mxGraphModel dx="2622" dy="1358" grid="1" gridSize="10" guides="1" tooltips="1" connect="1" arrows="1" fold="1" page="1" pageScale="1" pageWidth="2000" pageHeight="3600" math="0" shadow="0">
            <root>
                <mxCell id="0"/>
                <mxCell id="1" parent="0"/>
                <mxCell id="8" value="" style="edgeStyle=none;html=1;" parent="1" source="2" target="7" edge="1">
                    <mxGeometry relative="1" as="geometry"/>
                </mxCell>
                <mxCell id="2" value="Request the user for a number" style="rounded=0;whiteSpace=wrap;html=1;" parent="1" vertex="1">
                    <mxGeometry x="800" y="220" width="120" height="60" as="geometry"/>
                </mxCell>
                <mxCell id="9" value="" style="edgeStyle=none;html=1;" parent="1" source="5" target="2" edge="1">
                    <mxGeometry relative="1" as="geometry"/>
                </mxCell>
                <mxCell id="5" value="Start" style="ellipse;whiteSpace=wrap;html=1;" parent="1" vertex="1">
                    <mxGeometry x="800" y="90" width="120" height="80" as="geometry"/>
                </mxCell>
                <mxCell id="11" value="" style="edgeStyle=none;html=1;" parent="1" source="7" target="10" edge="1">
                    <mxGeometry relative="1" as="geometry"/>
                </mxCell>
                <mxCell id="7" value="int: rangeUser" style="shape=parallelogram;perimeter=parallelogramPerimeter;whiteSpace=wrap;html=1;fixedSize=1;rounded=0;" parent="1" vertex="1">
                    <mxGeometry x="800" y="330" width="120" height="60" as="geometry"/>
                </mxCell>
                <mxCell id="13" value="" style="edgeStyle=none;html=1;entryX=0.5;entryY=0;entryDx=0;entryDy=0;startArrow=none;" parent="1" target="12" edge="1">
                    <mxGeometry relative="1" as="geometry">
                        <mxPoint x="730" y="590" as="sourcePoint"/>
                        <Array as="points">
                            <mxPoint x="590" y="590"/>
                        </Array>
                    </mxGeometry>
                </mxCell>
                <mxCell id="50" value="" style="edgeStyle=none;html=1;startArrow=none;" parent="1" source="51" target="49" edge="1">
                    <mxGeometry relative="1" as="geometry"/>
                </mxCell>
                <mxCell id="10" value="i = 1&lt;br&gt;i &amp;lt;=&amp;nbsp; rangeUser" style="rhombus;whiteSpace=wrap;html=1;rounded=0;" parent="1" vertex="1">
                    <mxGeometry x="795" y="460" width="130" height="130" as="geometry"/>
                </mxCell>
                <mxCell id="15" value="" style="edgeStyle=none;html=1;startArrow=none;" parent="1" source="18" target="14" edge="1">
                    <mxGeometry relative="1" as="geometry"/>
                </mxCell>
                <mxCell id="23" style="edgeStyle=none;html=1;exitX=1;exitY=0.5;exitDx=0;exitDy=0;startArrow=none;" parent="1" source="20" target="22" edge="1">
                    <mxGeometry relative="1" as="geometry"/>
                </mxCell>
                <mxCell id="12" value="i %3 == 0&amp;nbsp;&lt;br&gt;and&lt;br&gt;i%5 == 0" style="rhombus;whiteSpace=wrap;html=1;rounded=0;" parent="1" vertex="1">
                    <mxGeometry x="530" y="690" width="120" height="120" as="geometry"/>
                </mxCell>
                <mxCell id="45" style="edgeStyle=none;html=1;exitX=0.5;exitY=1;exitDx=0;exitDy=0;entryX=0;entryY=0.5;entryDx=0;entryDy=0;" parent="1" source="14" target="10" edge="1">
                    <mxGeometry relative="1" as="geometry">
                        <Array as="points">
                            <mxPoint x="590" y="1080"/>
                            <mxPoint x="440" y="1080"/>
                            <mxPoint x="440" y="525"/>
                        </Array>
                    </mxGeometry>
                </mxCell>
                <mxCell id="14" value="print &quot;fizzBuzz&quot;" style="whiteSpace=wrap;html=1;rounded=0;" parent="1" vertex="1">
                    <mxGeometry x="530" y="930" width="120" height="60" as="geometry"/>
                </mxCell>
                <mxCell id="17" value="" style="edgeStyle=none;html=1;exitX=0.5;exitY=1;exitDx=0;exitDy=0;endArrow=none;" parent="1" source="10" edge="1">
                    <mxGeometry relative="1" as="geometry">
                        <mxPoint x="860" y="590" as="sourcePoint"/>
                        <mxPoint x="770" y="590" as="targetPoint"/>
                        <Array as="points"/>
                    </mxGeometry>
                </mxCell>
                <mxCell id="3" value="True" style="text;html=1;strokeColor=none;fillColor=none;align=center;verticalAlign=middle;whiteSpace=wrap;rounded=0;" parent="1" vertex="1">
                    <mxGeometry x="720" y="570" width="60" height="30" as="geometry"/>
                </mxCell>
                <mxCell id="19" value="" style="edgeStyle=none;html=1;endArrow=none;" parent="1" source="12" target="18" edge="1">
                    <mxGeometry relative="1" as="geometry">
                        <mxPoint x="630" y="810" as="sourcePoint"/>
                        <mxPoint x="630" y="900" as="targetPoint"/>
                    </mxGeometry>
                </mxCell>
                <mxCell id="18" value="True" style="text;html=1;strokeColor=none;fillColor=none;align=center;verticalAlign=middle;whiteSpace=wrap;rounded=0;" parent="1" vertex="1">
                    <mxGeometry x="560" y="830" width="60" height="30" as="geometry"/>
                </mxCell>
                <mxCell id="27" value="" style="edgeStyle=none;html=1;startArrow=none;" parent="1" source="28" target="26" edge="1">
                    <mxGeometry relative="1" as="geometry"/>
                </mxCell>
                <mxCell id="31" value="" style="edgeStyle=none;html=1;startArrow=none;" parent="1" source="32" target="30" edge="1">
                    <mxGeometry relative="1" as="geometry"/>
                </mxCell>
                <mxCell id="22" value="i%3 == 0" style="rhombus;whiteSpace=wrap;html=1;rounded=0;" parent="1" vertex="1">
                    <mxGeometry x="840" y="690" width="120" height="120" as="geometry"/>
                </mxCell>
                <mxCell id="25" value="" style="edgeStyle=none;html=1;exitX=1;exitY=0.5;exitDx=0;exitDy=0;endArrow=none;" parent="1" source="12" target="20" edge="1">
                    <mxGeometry relative="1" as="geometry">
                        <mxPoint x="650" y="750" as="sourcePoint"/>
                        <mxPoint x="840" y="750" as="targetPoint"/>
                    </mxGeometry>
                </mxCell>
                <mxCell id="20" value="False" style="text;html=1;strokeColor=none;fillColor=none;align=center;verticalAlign=middle;whiteSpace=wrap;rounded=0;" parent="1" vertex="1">
                    <mxGeometry x="720" y="735" width="60" height="30" as="geometry"/>
                </mxCell>
                <mxCell id="46" style="edgeStyle=none;html=1;exitX=0.5;exitY=1;exitDx=0;exitDy=0;" parent="1" source="26" edge="1">
                    <mxGeometry relative="1" as="geometry">
                        <mxPoint x="570" y="1080" as="targetPoint"/>
                        <Array as="points">
                            <mxPoint x="900" y="1080"/>
                        </Array>
                    </mxGeometry>
                </mxCell>
                <mxCell id="26" value="print &quot;fizz&quot;" style="whiteSpace=wrap;html=1;rounded=0;" parent="1" vertex="1">
                    <mxGeometry x="840" y="930" width="120" height="60" as="geometry"/>
                </mxCell>
                <mxCell id="29" value="" style="edgeStyle=none;html=1;endArrow=none;" parent="1" source="22" target="28" edge="1">
                    <mxGeometry relative="1" as="geometry">
                        <mxPoint x="900" y="810" as="sourcePoint"/>
                        <mxPoint x="900" y="920" as="targetPoint"/>
                    </mxGeometry>
                </mxCell>
                <mxCell id="28" value="True" style="text;html=1;strokeColor=none;fillColor=none;align=center;verticalAlign=middle;whiteSpace=wrap;rounded=0;" parent="1" vertex="1">
                    <mxGeometry x="870" y="840" width="60" height="30" as="geometry"/>
                </mxCell>
                <mxCell id="35" value="" style="edgeStyle=none;html=1;startArrow=none;" parent="1" source="36" target="34" edge="1">
                    <mxGeometry relative="1" as="geometry"/>
                </mxCell>
                <mxCell id="39" value="" style="edgeStyle=none;html=1;startArrow=none;" parent="1" source="40" target="38" edge="1">
                    <mxGeometry relative="1" as="geometry"/>
                </mxCell>
                <mxCell id="30" value="i%5 == 0" style="rhombus;whiteSpace=wrap;html=1;rounded=0;" parent="1" vertex="1">
                    <mxGeometry x="1080" y="690" width="110" height="120" as="geometry"/>
                </mxCell>
                <mxCell id="33" value="" style="edgeStyle=none;html=1;endArrow=none;" parent="1" source="22" target="32" edge="1">
                    <mxGeometry relative="1" as="geometry">
                        <mxPoint x="960" y="750" as="sourcePoint"/>
                        <mxPoint x="1080" y="750" as="targetPoint"/>
                    </mxGeometry>
                </mxCell>
                <mxCell id="32" value="False" style="text;html=1;strokeColor=none;fillColor=none;align=center;verticalAlign=middle;whiteSpace=wrap;rounded=0;" parent="1" vertex="1">
                    <mxGeometry x="980" y="735" width="60" height="30" as="geometry"/>
                </mxCell>
                <mxCell id="47" style="edgeStyle=none;html=1;exitX=0.5;exitY=1;exitDx=0;exitDy=0;" parent="1" source="34" edge="1">
                    <mxGeometry relative="1" as="geometry">
                        <mxPoint x="900" y="1080" as="targetPoint"/>
                        <Array as="points">
                            <mxPoint x="1135" y="1080"/>
                        </Array>
                    </mxGeometry>
                </mxCell>
                <mxCell id="34" value="print &quot;buzz&quot;" style="whiteSpace=wrap;html=1;rounded=0;" parent="1" vertex="1">
                    <mxGeometry x="1075" y="930" width="120" height="60" as="geometry"/>
                </mxCell>
                <mxCell id="37" value="" style="edgeStyle=none;html=1;endArrow=none;" parent="1" source="30" target="36" edge="1">
                    <mxGeometry relative="1" as="geometry">
                        <mxPoint x="1135" y="810" as="sourcePoint"/>
                        <mxPoint x="1135" y="920" as="targetPoint"/>
                    </mxGeometry>
                </mxCell>
                <mxCell id="36" value="True" style="text;html=1;strokeColor=none;fillColor=none;align=center;verticalAlign=middle;whiteSpace=wrap;rounded=0;" parent="1" vertex="1">
                    <mxGeometry x="1105" y="840" width="60" height="30" as="geometry"/>
                </mxCell>
                <mxCell id="48" style="edgeStyle=none;html=1;exitX=0.5;exitY=1;exitDx=0;exitDy=0;" parent="1" source="38" edge="1">
                    <mxGeometry relative="1" as="geometry">
                        <mxPoint x="1130" y="1080" as="targetPoint"/>
                        <Array as="points">
                            <mxPoint x="1370" y="1080"/>
                        </Array>
                    </mxGeometry>
                </mxCell>
                <mxCell id="38" value="print i" style="whiteSpace=wrap;html=1;rounded=0;" parent="1" vertex="1">
                    <mxGeometry x="1310" y="720" width="120" height="60" as="geometry"/>
                </mxCell>
                <mxCell id="41" value="" style="edgeStyle=none;html=1;endArrow=none;" parent="1" source="30" target="40" edge="1">
                    <mxGeometry relative="1" as="geometry">
                        <mxPoint x="1190" y="750" as="sourcePoint"/>
                        <mxPoint x="1310" y="750" as="targetPoint"/>
                    </mxGeometry>
                </mxCell>
                <mxCell id="40" value="False" style="text;html=1;strokeColor=none;fillColor=none;align=center;verticalAlign=middle;whiteSpace=wrap;rounded=0;" parent="1" vertex="1">
                    <mxGeometry x="1220" y="735" width="60" height="30" as="geometry"/>
                </mxCell>
                <mxCell id="49" value="End" style="ellipse;whiteSpace=wrap;html=1;rounded=0;" parent="1" vertex="1">
                    <mxGeometry x="1130" y="485" width="110" height="80" as="geometry"/>
                </mxCell>
                <mxCell id="52" value="" style="edgeStyle=none;html=1;endArrow=none;" parent="1" source="10" target="51" edge="1">
                    <mxGeometry relative="1" as="geometry">
                        <mxPoint x="925" y="525" as="sourcePoint"/>
                        <mxPoint x="1129.9999999999995" y="525" as="targetPoint"/>
                    </mxGeometry>
                </mxCell>
                <mxCell id="51" value="False" style="text;html=1;strokeColor=none;fillColor=none;align=center;verticalAlign=middle;whiteSpace=wrap;rounded=0;" parent="1" vertex="1">
                    <mxGeometry x="970" y="510" width="60" height="30" as="geometry"/>
                </mxCell>
            </root>
        </mxGraphModel>
    </diagram>
</mxfile>